<svg xmlns="http://www.w3.org/2000/svg" version="1.1" xmlns:xlink="http://www.w3.org/1999/xlink" xmlns:svgjs="http://svgjs.dev/svgjs" viewBox="1.44 0 1994.75 463.37"><g transform="matrix(1,0,0,1,-1.2121212121212466,-0.31435589442321543)"><svg viewBox="0 0 396 92" data-background-color="#ffffff" preserveAspectRatio="xMidYMid meet" height="464" width="2000" xmlns="http://www.w3.org/2000/svg" xmlns:xlink="http://www.w3.org/1999/xlink"><g id="tight-bounds" transform="matrix(1,0,0,1,0.2400000000000091,0.06232918596322179)"><svg viewBox="0 0 395.52 91.87534162807354" height="91.87534162807354" width="395.52"><g><svg viewBox="0 0 395.52 91.87534162807354" height="91.87534162807354" width="395.52"><g><svg viewBox="0 0 577.1910163801647 134.07570240337435" height="91.87534162807354" width="395.52"><g><rect width="4.97100924584807" height="55.398171669595776" x="408.53311320902634" y="39.33876536688929" fill="#1e55b3" opacity="1" stroke-width="0" stroke="transparent" fill-opacity="1" class="rect-qz-0" data-fill-palette-color="primary" rx="1%" id="qz-0" data-palette-color="#1e55b3"/></g><g><rect width="4.97100924584807" height="55.398171669595776" x="420.0106790593876" y="39.33876536688929" fill="#1e55b3" opacity="1" stroke-width="0" stroke="transparent" fill-opacity="1" class="rect-qz-1" data-fill-palette-color="primary" rx="1%" id="qz-1" data-palette-color="#1e55b3"/></g><g transform="matrix(1,0,0,1,0,39.476571764077335)"><svg viewBox="0 0 395.52 55.12255887521968" height="55.12255887521968" width="395.52"><g id="textblocktransform"><svg viewBox="0 0 395.52 55.12255887521968" height="55.12255887521968" width="395.52" id="textblock"><g><svg viewBox="0 0 395.52 55.12255887521968" height="55.12255887521968" width="395.52"><g transform="matrix(1,0,0,1,0,0)"><svg width="395.52" viewBox="3.8 -39.25 284.47999999999996 39.65" height="55.12255887521968" data-palette-color="#1e55b3"><path d="M27.55-34.7Q28.3-34.7 28.88-34.15 29.45-33.6 29.45-32.8L29.45-32.8Q29.45-31.95 28.8-31.45L28.8-31.45Q25.8-29.05 21.15-26.05L21.15-26.05Q19.55-25.05 18.75-24.5L18.75-24.5Q18-24 12.8-20.65L12.8-20.65Q10.2-19 9.45-18.5L9.45-18.5 11.75-16.4Q14.5-13.8 17.8-10.95L17.8-10.95Q20.6-8.55 22.45-7.15 24.3-5.75 27.65-3.35L27.65-3.35Q28.4-2.85 28.4-1.8L28.4-1.8Q28.4-0.95 27.85-0.45 27.3 0.05 26.55 0.05L26.55 0.05Q25.85 0.05 25.45-0.3L25.45-0.3Q19.35-5 15.65-8.1L15.65-8.1Q11.65-11.45 7.85-15.3L7.85-15.3Q7.85-13.45 7.75-10.15L7.75-10.15Q7.65-4.95 7.65-1.85L7.65-1.85Q7.65-0.95 7.13-0.48 6.6 0 5.7 0L5.7 0Q3.8 0 3.8-2.25L3.8-2.25Q3.8-4.5 3.9-9.5L3.9-9.5Q4.05-13.8 4.05-19L4.05-19Q4.05-23.65 4-25.8L4-25.8 3.95-33.25Q3.95-33.95 4.5-34.45 5.05-34.95 5.9-34.95L5.9-34.95Q6.8-34.95 7.33-34.43 7.85-33.9 7.85-33.1L7.85-33.1 7.9-21.45Q11.75-24 16.35-27.15L16.35-27.15 17.45-27.9Q23.5-32.1 26.35-34.3L26.35-34.3Q26.9-34.7 27.55-34.7L27.55-34.7ZM55.35-19Q56.05-16.2 56.3-12.05 56.55-7.9 56.55-1.5L56.55-1.5Q56.55-0.85 56.02-0.43 55.5 0 54.65 0L54.65 0Q53.8 0 53.27-0.43 52.75-0.85 52.75-1.7L52.75-1.7Q52.75-14.85 51.65-18.4L51.65-18.4Q51.05-20.45 49.92-21.38 48.8-22.3 46.9-22.3L46.9-22.3Q44.3-22.3 42.5-20.78 40.7-19.25 39.8-16.9 38.9-14.55 38.9-12L38.9-12 38.9-1.45Q38.9-0.85 38.35-0.45 37.8-0.05 37-0.05L37-0.05Q36.15-0.05 35.62-0.45 35.1-0.85 35.1-1.5L35.1-1.5Q35.1-11.85 35.35-21L35.35-21Q35.6-29.2 36.15-37.5L36.15-37.5Q36.3-39.25 38.05-39.25L38.05-39.25Q38.85-39.25 39.37-38.88 39.9-38.5 39.85-37.85L39.85-37.85 39.5-30.85Q39.2-24.4 39-21.45L39-21.45Q40.25-23.3 42.3-24.53 44.35-25.75 47.4-25.75L47.4-25.75Q50.7-25.75 52.57-24.1 54.45-22.45 55.35-19L55.35-19ZM73.84-25.7Q77.05-25.7 78.84-23.68 80.65-21.65 80.65-18.75L80.65-18.75Q80.65-16 79-14.43 77.34-12.85 74.75-12.85L74.75-12.85Q73.75-12.85 73.32-13.15 72.9-13.45 72.9-14.25L72.9-14.25Q72.9-15.55 74.15-15.6L74.15-15.6Q77.4-15.9 77.4-18.8L77.4-18.8Q77.4-20.35 76.55-21.45 75.7-22.55 73.8-22.55L73.8-22.55Q71.8-22.55 70.32-20.85 68.84-19.15 68-16.63 67.14-14.1 67-11.65L67-11.65Q66.7-7.05 66.7-2.95L66.7-2.95Q66.7-0.9 66.32-0.25 65.95 0.4 64.84 0.4L64.84 0.4Q63.75 0.4 63.32-0.13 62.9-0.65 62.9-1.95L62.9-1.95 62.84-11.5Q62.84-14.8 62.34-20.2L62.34-20.2Q62.05-23.35 62-24.7L62-24.7Q61.95-25.5 62.45-25.93 62.95-26.35 63.84-26.35L63.84-26.35Q65.39-26.35 65.5-24.85L65.5-24.85Q65.8-21.7 65.84-18.7L65.84-18.7Q66.7-22 68.8-23.85 70.9-25.7 73.84-25.7L73.84-25.7ZM98.54 0.05Q92.89 0.05 89.17-2.95 85.44-5.95 85.44-12.35L85.44-12.35Q85.44-16.35 86.97-19.38 88.49-22.4 91.39-24.1 94.29-25.8 98.24-25.8L98.24-25.8Q102.04-25.8 105.07-24.23 108.09-22.65 109.82-19.63 111.54-16.6 111.54-12.4L111.54-12.4Q111.54-6.3 107.97-3.13 104.39 0.05 98.54 0.05L98.54 0.05ZM98.44-3.1Q102.44-3.1 105.07-5.48 107.69-7.85 107.69-12.45L107.69-12.45Q107.69-15.45 106.52-17.78 105.34-20.1 103.22-21.38 101.09-22.65 98.34-22.65L98.34-22.65Q94.24-22.65 91.77-19.85 89.29-17.05 89.29-12.45L89.29-12.45Q89.29-7.6 91.94-5.35 94.59-3.1 98.44-3.1L98.44-3.1ZM126.29-0.3Q124.39-0.3 122.47-3.25 120.54-6.2 118.79-11.2L118.79-11.2Q117.54-14.7 116.67-18.2 115.79-21.7 115.79-23.2L115.79-23.2Q115.79-24.15 116.32-24.63 116.84-25.1 117.74-25.1L117.74-25.1Q118.54-25.1 119.02-24.68 119.49-24.25 119.59-23.5L119.59-23.5Q120.14-19.05 122.09-12.9L122.09-12.9Q123.19-9.65 124.47-7.15 125.74-4.65 126.24-4.65L126.24-4.65Q126.84-4.65 128.09-7.03 129.34-9.4 130.64-12.9L130.64-12.9Q132.99-19.35 133.44-23.7L133.44-23.7Q133.54-24.45 134.04-24.9 134.54-25.35 135.34-25.35L135.34-25.35Q136.24-25.35 136.74-24.8 137.24-24.25 137.24-23.35L137.24-23.35Q137.24-21.8 136.37-18.43 135.49-15.05 134.09-11.4L134.09-11.4Q129.84-0.3 126.29-0.3L126.29-0.3ZM170.34-0.05Q166.69-0.05 164.09-1.53 161.49-3 160.16-5.48 158.84-7.95 158.84-10.85L158.84-10.85Q158.84-11.75 159.26-12.25 159.69-12.75 160.74-12.75L160.74-12.75Q162.69-12.75 162.69-11.1L162.69-11.1Q162.69-8.75 163.74-7.05 164.79-5.35 166.54-4.45 168.29-3.55 170.34-3.55L170.34-3.55Q173.34-3.55 175.26-4.95 177.19-6.35 177.19-9L177.19-9Q177.19-10.95 176.14-12.23 175.09-13.5 173.39-14.28 171.69-15.05 169.04-15.85L169.04-15.85Q166.19-16.65 164.19-17.53 162.19-18.4 160.46-20.35 158.74-22.3 158.74-25.5L158.74-25.5Q158.74-28.35 160.24-30.6 161.74-32.85 164.24-34.1 166.74-35.35 169.74-35.35L169.74-35.35Q172.84-35.35 175.36-34 177.89-32.65 179.31-30.45 180.74-28.25 180.74-25.8L180.74-25.8Q180.74-24.7 180.31-24.25 179.89-23.8 178.89-23.8L178.89-23.8Q177.74-23.8 177.34-24.25 176.94-24.7 176.94-25.5L176.94-25.5Q176.94-28.15 174.94-30 172.94-31.85 169.74-31.85L169.74-31.85Q166.54-31.85 164.56-30.03 162.59-28.2 162.59-25.45L162.59-25.45Q162.59-23.6 163.66-22.43 164.74-21.25 166.36-20.6 167.99-19.95 170.99-19.05L170.99-19.05Q173.54-18.25 175.61-17.28 177.69-16.3 179.34-14.25 180.99-12.2 180.99-9.05L180.99-9.05Q180.99-6.35 179.61-4.3 178.24-2.25 175.81-1.15 173.39-0.05 170.34-0.05L170.34-0.05ZM201.68-8.15Q202.58-8.15 202.96-7.73 203.33-7.3 203.33-6.2L203.33-6.2Q203.33-3.6 201.61-1.8 199.88 0 197.18 0L197.18 0Q193.43 0 191.81-3.3 190.18-6.6 190.18-13.55L190.18-13.55Q190.18-16.15 190.43-19.5L190.43-19.5Q189.88-19.55 187.33-19.75L187.33-19.75Q185.83-19.9 185.83-21.4L185.83-21.4Q185.83-22.9 187.28-22.9L187.28-22.9Q187.68-22.9 188.98-22.8L188.98-22.8Q190.08-22.7 190.68-22.7L190.68-22.7Q191.03-26.4 191.88-32L191.88-32Q191.98-32.75 192.41-33.13 192.83-33.5 193.78-33.5L193.78-33.5Q194.73-33.5 195.28-33 195.83-32.5 195.73-31.75L195.73-31.75 195.48-30.1Q194.73-24.3 194.53-22.5L194.53-22.5 198.53-22.4Q199.28-22.4 199.66-22.1 200.03-21.8 200.03-21.05L200.03-21.05Q200.03-20.1 199.66-19.78 199.28-19.45 198.23-19.4L198.23-19.4Q196.68-19.35 194.23-19.35L194.23-19.35Q193.98-16.2 193.98-13.55L193.98-13.55Q193.98-8.7 194.76-5.95 195.53-3.2 197.58-3.2L197.58-3.2Q198.68-3.2 199.33-4.05 199.98-4.9 200.08-6.6L200.08-6.6Q200.13-7.4 200.41-7.78 200.68-8.15 201.68-8.15L201.68-8.15ZM220.78 0.05Q215.13 0.05 211.41-2.95 207.68-5.95 207.68-12.35L207.68-12.35Q207.68-16.35 209.21-19.38 210.73-22.4 213.63-24.1 216.53-25.8 220.48-25.8L220.48-25.8Q224.28-25.8 227.31-24.23 230.33-22.65 232.06-19.63 233.78-16.6 233.78-12.4L233.78-12.4Q233.78-6.3 230.21-3.13 226.63 0.05 220.78 0.05L220.78 0.05ZM220.68-3.1Q224.68-3.1 227.31-5.48 229.93-7.85 229.93-12.45L229.93-12.45Q229.93-15.45 228.76-17.78 227.58-20.1 225.46-21.38 223.33-22.65 220.58-22.65L220.58-22.65Q216.48-22.65 214.01-19.85 211.53-17.05 211.53-12.45L211.53-12.45Q211.53-7.6 214.18-5.35 216.83-3.1 220.68-3.1L220.68-3.1ZM250.83-25.7Q254.03-25.7 255.83-23.68 257.63-21.65 257.63-18.75L257.63-18.75Q257.63-16 255.98-14.43 254.33-12.85 251.73-12.85L251.73-12.85Q250.73-12.85 250.3-13.15 249.88-13.45 249.88-14.25L249.88-14.25Q249.88-15.55 251.13-15.6L251.13-15.6Q254.38-15.9 254.38-18.8L254.38-18.8Q254.38-20.35 253.53-21.45 252.68-22.55 250.78-22.55L250.78-22.55Q248.78-22.55 247.3-20.85 245.83-19.15 244.98-16.63 244.13-14.1 243.98-11.65L243.98-11.65Q243.68-7.05 243.68-2.95L243.68-2.95Q243.68-0.9 243.3-0.25 242.93 0.4 241.83 0.4L241.83 0.4Q240.73 0.4 240.3-0.13 239.88-0.65 239.88-1.95L239.88-1.95 239.83-11.5Q239.83-14.8 239.33-20.2L239.33-20.2Q239.03-23.35 238.98-24.7L238.98-24.7Q238.93-25.5 239.43-25.93 239.93-26.35 240.83-26.35L240.83-26.35Q242.38-26.35 242.48-24.85L242.48-24.85Q242.78-21.7 242.83-18.7L242.83-18.7Q243.68-22 245.78-23.85 247.88-25.7 250.83-25.7L250.83-25.7ZM276.63 0.2Q272.53 0.2 269.55-1.58 266.58-3.35 265.05-6.28 263.53-9.2 263.53-12.65L263.53-12.65Q263.53-16.2 265.13-19.18 266.73-22.15 269.68-23.9 272.63-25.65 276.48-25.65L276.48-25.65Q279.88-25.65 282.58-24.28 285.28-22.9 286.78-20.45 288.28-18 288.28-14.85L288.28-14.85Q288.28-13.35 287.93-12.73 287.58-12.1 286.18-12.05L286.18-12.05 267.13-11.65Q267.13-9.75 268.28-7.75 269.43-5.75 271.55-4.4 273.68-3.05 276.48-3.05L276.48-3.05Q278.58-3.05 280.08-3.68 281.58-4.3 282.43-5.1 283.28-5.9 284.48-7.35L284.48-7.35Q284.83-7.8 285.58-7.8L285.58-7.8Q286.23-7.8 286.8-7.3 287.38-6.8 287.38-6.15L287.38-6.15Q287.38-5.65 286.98-5.1L286.98-5.1Q285.38-2.9 283.1-1.35 280.83 0.2 276.63 0.2L276.63 0.2ZM267.13-14.65L284.53-15.1Q285.03-15.1 285.03-15.8L285.03-15.8Q285.03-18.8 282.63-20.68 280.23-22.55 276.58-22.55L276.58-22.55Q273.83-22.55 271.68-21.15 269.53-19.75 268.33-17.85 267.13-15.95 267.13-14.65L267.13-14.65Z" opacity="1" transform="matrix(1,0,0,1,0,0)" fill="#1e55b3" class="wordmark-text-0" data-fill-palette-color="primary" id="text-0"/></svg></g></svg></g></svg></g></svg></g><g transform="matrix(1,0,0,1,437.994801514262,0)"><svg viewBox="0 0 139.19621486590268 134.07570240337435" height="134.07570240337435" width="139.19621486590268"><g><svg xmlns="http://www.w3.org/2000/svg" xmlns:xlink="http://www.w3.org/1999/xlink" version="1.1" x="0" y="0" viewBox="2.606452706841836 4.799999999999999 95.84269735253784 92.31700000000001" enable-background="new 0 0 100 100" xml:space="preserve" height="134.07570240337435" width="139.19621486590268" class="icon-icon-0" data-fill-palette-color="accent" id="icon-0"><g fill="#ff585f" data-fill-palette-color="accent"><path d="M67.736 17.685h-9.499c0.663-1.232 1.041-2.64 1.041-4.134 0-4.826-3.925-8.751-8.75-8.751-4.825 0-8.751 3.926-8.751 8.751 0 1.494 0.378 2.902 1.042 4.134h-9.5l-4.251 29.964h42.922L67.736 17.685zM50.528 18.027c-2.472 0-4.477-2.003-4.477-4.476s2.005-4.478 4.477-4.478c2.473 0 4.477 2.005 4.477 4.478S53.001 18.027 50.528 18.027z" fill="#ff585f" data-fill-palette-color="accent"/><g fill="#ff585f" data-fill-palette-color="accent"><g fill="#ff585f" data-fill-palette-color="accent"><g fill="#ff585f" data-fill-palette-color="accent"><path d="M15.846 94.643c0.327 1.361 1.739 2.474 3.137 2.474h6.474c1.399 0 1.48-0.425 0.182-0.944l-1.058-0.424c-1.298-0.52-2.425-2.087-2.502-3.483l-0.874-15.729c-0.078-1.396-0.442-3.644-0.811-4.992l-2.129-7.809c-0.368-1.35-0.614-3.597-0.545-4.994l0.203-4.168c0.069-1.397-0.237-3.626-0.679-4.952l-0.704-2.111c-0.259-0.777-0.223-1.185 0.043-1.185 0.188 0 0.493 0.206 0.889 0.63l3.011 3.22c0.955 1.021 2.823 2.219 4.149 2.663l6.654 1.009c0.417 0.083 0.909 0.123 1.428 0.123 1.189 0 2.523-0.208 3.427-0.569l1.058-0.422c1.298-0.521 1.321-0.945 0.049-0.945-1.272 0-2.312-0.52-2.312-1.156 0-0.318-0.13-0.477-0.34-0.477s-0.499 0.159-0.816 0.477c-0.321 0.321-0.875 0.482-1.505 0.482-0.617 0-1.307-0.153-1.926-0.464l-2.386-1.193c-1.252-0.625-2.715-2.193-3.253-3.484l-3.823-9.177c-0.366-0.88-1.144-1.377-1.981-1.377-0.392 0-0.796 0.108-1.179 0.338 0 0-3.598 2.16-7.067 7.94-3.468 5.78-3.196 13.643-3.196 13.643 0.048 1.397 0.355 3.654 0.682 5.014L15.846 94.643z" fill="#ff585f" data-fill-palette-color="accent"/><path d="M11.238 95.959c-1.59-0.634-2.212-2.443-1.382-4.019l2.85-5.417L7.793 66.077l0.424 10.466c0.072 1.778-0.395 4.592-1.037 6.252l-4.37 11.303c-0.643 1.66 0.289 3.019 2.069 3.019h6.011C12.671 97.116 12.827 96.596 11.238 95.959z" fill="#ff585f" data-fill-palette-color="accent"/></g><path d="M19.583 31.867c3.73-0.486 4.016-3.218 3.832-4.63 0 0-0.323-2.476-0.586-4.493-0.239-1.834-3.117-3.046-6.042-1.639-2.926 1.408-4.255 2.142-4.016 3.976C13.433 30.149 15.853 32.353 19.583 31.867z" fill="#ff585f" data-fill-palette-color="accent"/></g><g fill="#ff585f" data-fill-palette-color="accent"><g fill="#ff585f" data-fill-palette-color="accent"><path d="M85.211 94.643c-0.328 1.361-1.738 2.474-3.138 2.474H75.6c-1.398 0-1.48-0.425-0.183-0.944l1.059-0.424c1.299-0.52 2.425-2.087 2.503-3.483l0.872-15.729c0.079-1.396 0.442-3.644 0.811-4.992l2.129-7.809c0.369-1.35 0.614-3.597 0.547-4.994l-0.204-4.168c-0.069-1.397 0.238-3.626 0.68-4.952l0.704-2.111c0.259-0.777 0.222-1.185-0.044-1.185-0.189 0-0.492 0.206-0.889 0.63l-3.011 3.22c-0.955 1.021-2.822 2.219-4.149 2.663l-6.653 1.009c-0.417 0.083-0.908 0.123-1.429 0.123-1.19 0-2.522-0.208-3.427-0.569l-1.058-0.422c-1.299-0.521-1.32-0.945-0.049-0.945 1.272 0 2.312-0.52 2.312-1.156 0-0.318 0.13-0.477 0.339-0.477s0.498 0.159 0.816 0.477c0.321 0.321 0.875 0.482 1.504 0.482 0.618 0 1.309-0.153 1.927-0.464l2.387-1.193c1.251-0.625 2.715-2.193 3.252-3.484l3.825-9.177c0.365-0.88 1.143-1.377 1.979-1.377 0.393 0 0.797 0.108 1.18 0.338 0 0 3.598 2.16 7.066 7.94 3.468 5.78 3.196 13.643 3.196 13.643-0.048 1.397-0.354 3.654-0.683 5.014L85.211 94.643z" fill="#ff585f" data-fill-palette-color="accent"/><path d="M89.819 95.959c1.589-0.634 2.212-2.443 1.382-4.019l-2.851-5.417 4.912-20.446L92.84 76.543c-0.072 1.778 0.395 4.592 1.037 6.252l4.369 11.303c0.642 1.66-0.289 3.019-2.069 3.019h-6.012C88.386 97.116 88.229 96.596 89.819 95.959z" fill="#ff585f" data-fill-palette-color="accent"/></g><path d="M81.473 31.867c-3.73-0.486-4.017-3.218-3.832-4.63 0 0 0.324-2.476 0.587-4.493 0.238-1.834 3.116-3.046 6.042-1.639 2.924 1.408 4.254 2.142 4.016 3.976C87.624 30.149 85.204 32.353 81.473 31.867z" fill="#ff585f" data-fill-palette-color="accent"/></g></g></g></svg></g></svg></g></svg></g></svg></g><defs/></svg><rect width="395.52" height="91.87534162807354" fill="none" stroke="none" visibility="hidden"/></g></svg></g></svg>